# xmcd
#
# Track frame offsets: 
#        150
#        15775
#        31239
#        48307
#        63282
#        75744
#        91206
#        106637
#        124720
#        141601
#
# Disc length: 2078 seconds
#
# Revision: 0
# Processed by: cddbd v1.5.2PL0 Copyright (c) Steve Scherf et al.
# Submitted via: ExactAudioCopy v0.99pb5
#
DISCID=71081c0a
DTITLE=Crystal Gayle - Nobody Wants To Be Alone
DYEAR=1985
DGENRE=Country
TTITLE0=A Long And Lasting Love
TTITLE1=Tonight, Tonight
TTITLE2=Nobody Wants To Be Alone
TTITLE3=Love Does That To Fools
TTITLE4=Coming To The Dance
TTITLE5=You Were There For Me
TTITLE6=Touch And Go
TTITLE7=Someone Like You
TTITLE8=A New Way To Say I Love You
TTITLE9=God Bless The Child
EXTD=
EXTT0=
EXTT1=
EXTT2=
EXTT3=
EXTT4=
EXTT5=
EXTT6=
EXTT7=
EXTT8=
EXTT9=
PLAYORDER=
